<?xml version="1.0" encoding="UTF-8"?>
<!-- Generated by Pixelmator Pro 3.3.2 -->
<svg width="1000" height="1000" viewBox="0 0 1000 1000" xmlns="http://www.w3.org/2000/svg" xmlns:xlink="http://www.w3.org/1999/xlink">
    <path id="Path" fill="#000000" stroke="none" d="M 0 71.625 C 0 32.0625 32.875 0 73.4375 0 L 926.5625 0 C 967.125 0 1000 32.0625 1000 71.625 L 1000 928.375 C 1000 967.9375 967.125 1000 926.5625 1000 L 73.4375 1000 C 32.875 1000 0 967.9375 0 928.375 L 0 71.625 Z M 308.9375 837.125 L 308.9375 385.562561 L 158.875 385.562561 L 158.875 837.125 L 308.9375 837.125 Z M 233.9375 323.875 C 286.25 323.875 318.8125 289.25 318.8125 245.875 C 317.875 201.5625 286.3125 167.875 234.9375 167.875 C 183.5625 167.875 150 201.625 150 245.875 C 150 289.25 182.5625 323.875 232.9375 323.875 L 233.9375 323.875 Z M 540.6875 837.125 L 540.6875 584.9375 C 540.6875 571.4375 541.6875 557.9375 545.6875 548.3125 C 556.5 521.375 581.1875 493.437531 622.6875 493.437531 C 677 493.437531 698.6875 534.8125 698.6875 595.5625 L 698.6875 837.125 L 848.75 837.125 L 848.75 578.125 C 848.75 439.375061 774.75 374.875 676 374.875 C 596.375 374.875 560.6875 418.625 540.6875 449.4375 L 540.6875 451 L 539.6875 451 C 540.01947 450.478333 540.352783 449.957458 540.6875 449.4375 L 540.6875 385.562561 L 390.6875 385.562561 C 392.5625 427.9375 390.6875 837.125 390.6875 837.125 L 540.6875 837.125 Z"/>
</svg>
